<?xml version="1.0" encoding="iso-8859-1"?>
<!-- Uploaded to: SVG Repo, www.svgrepo.com, Generator: SVG Repo Mixer Tools -->
<!DOCTYPE svg PUBLIC "-//W3C//DTD SVG 1.1//EN" "http://www.w3.org/Graphics/SVG/1.1/DTD/svg11.dtd">
<svg fill="#000000" height="800px" width="800px" version="1.1" id="Capa_1" xmlns="http://www.w3.org/2000/svg" xmlns:xlink="http://www.w3.org/1999/xlink" 
	 viewBox="0 0 187.334 187.334" xml:space="preserve">
<path d="M182.334,148.042h-20.167V75.136c0-2.761-2.238-5-5-5H142.35c-2.762,0-5,2.239-5,5v72.906h-4.183V62.803
	c0-2.761-2.238-5-5-5H113.35c-2.762,0-5,2.239-5,5v85.239H101.1c0.167-0.678,0.202-1.387,0.075-2.087L80.926,35.123
	c-0.497-2.716-3.095-4.515-5.817-4.02l-24.413,4.46c-0.074,0.014-0.142,0.045-0.214,0.062c-0.471-0.147-0.962-0.249-1.481-0.249
	H24.183c-2.762,0-5,2.239-5,5v107.667H10V34.292c0-2.761-2.238-5-5-5s-5,2.239-5,5v118.75c0,2.761,2.238,5,5,5h19.183H49h133.334
	c2.762,0,5-2.239,5-5S185.096,148.042,182.334,148.042z M54,81.474l12.162,66.569H54V81.474z"/>
</svg>